<?xml version="1.0" encoding="UTF-8" standalone="no"?>
<svg
   xmlns:dc="http://purl.org/dc/elements/1.1/"
   xmlns:cc="http://creativecommons.org/ns#"
   xmlns:rdf="http://www.w3.org/1999/02/22-rdf-syntax-ns#"
   xmlns:svg="http://www.w3.org/2000/svg"
   xmlns="http://www.w3.org/2000/svg"
   viewBox="0 0 30 30"
   height="30"
   width="30"
   xml:space="preserve"
   version="1.1"
   id="svg2"><metadata
     id="metadata8"><rdf:RDF><cc:Work
         rdf:about=""><dc:format>image/svg+xml</dc:format><dc:type
           rdf:resource="http://purl.org/dc/dcmitype/StillImage" /><dc:title></dc:title></cc:Work></rdf:RDF></metadata><defs
     id="defs6"><clipPath
       id="clipPath18"
       clipPathUnits="userSpaceOnUse"><path
         id="path20"
         d="m 0,1080 1920,0 L 1920,0 0,0 0,1080 Z" /></clipPath></defs><g
     transform="matrix(1.25,0,0,-1.25,0,30)"
     id="g10"><g
       transform="matrix(0.21011878,0,0,0.21011878,13.435414,14.760356)"
       id="g144"><path
         id="path146"
         style="fill:#00b4f0;fill-opacity:1;fill-rule:nonzero;stroke:none"
         d="m 0,0 c 0.035,0.295 0.059,0.626 0.059,0.948 0,3.143 0.754,6.441 8.426,6.441 l 25.655,0 c 11.57,0 16.123,5.352 16.123,16.293 l 0,9.307 c 0,3.118 -2.226,5.645 -5.344,5.645 -3.118,0 -5.494,-2.527 -5.494,-5.645 l 0.047,-3.173 c 0,-3.522 -2.188,-5.94 -7.47,-5.94 l -25.152,0 c -11.444,0 -12.325,-8.493 -12.702,-12.99 l -0.251,0 c -0.378,4.497 -1.258,12.99 -12.702,12.99 l -25.152,0 c -5.283,0 -8.197,2.448 -8.197,5.969 l 0,3.144 c 0,3.118 -2.364,5.645 -5.482,5.645 -3.118,0 -5.51,-2.527 -5.51,-5.645 l 0,-9.307 c 0,-10.941 5.481,-16.293 17.051,-16.293 l 25.655,0 c 7.671,0 8.426,-3.298 8.426,-6.441 0,-0.322 0.024,-0.64 0.059,-0.935 0.182,-3.148 2.784,-5.653 5.977,-5.653 3.194,0 5.796,2.492 5.978,5.64" /></g><g
       transform="matrix(0.21011878,0,0,0.21011878,12.179014,0.0829699)"
       id="g148"><path
         id="path150"
         style="fill:#00b4f0;fill-opacity:1;fill-rule:nonzero;stroke:none"
         d="m 0,0 c 2.708,0 5.036,1.612 6.09,3.925 0.052,0.093 0.105,0.179 0.156,0.277 l 23.363,43.203 c 0.653,1.141 0.994,2.423 0.994,3.718 0,4.132 -3.361,7.493 -7.493,7.493 -3.32,0 -5.576,-1.623 -7.1,-5.108 L 0.004,23.673 -15.985,53.472 c -1.541,3.521 -3.797,5.145 -7.117,5.145 -4.131,0 -7.493,-3.362 -7.493,-7.494 0,-1.295 0.342,-2.577 0.988,-3.708 L -6.241,4.207 C -6.206,4.141 -6.171,4.084 -6.136,4.021 -5.104,1.655 -2.746,0 0,0" /></g></g></svg>